M48
;Layer_Color=9474304
;FILE_FORMAT=2:5
INCH,LZ
;TYPE=PLATED
T1F00S00C0.00800
T2F00S00C0.02000
T3F00S00C0.02200
T4F00S00C0.02800
T5F00S00C0.03200
T6F00S00C0.03500
T7F00S00C0.03543
T8F00S00C0.03800
T9F00S00C0.06200
T10F00S00C0.15650
;TYPE=NON_PLATED
T11F00S00C0.12800
%
T01
X01125Y0115
X01395Y01175
Y01085
X0137748Y0154
X0164Y01085
X01915Y0108
X02165
X0369Y01445
X03504Y02204
X03397Y02465
X032295Y026325
X03509Y03078
X04064Y02265
X0419Y023
X0299265Y0230489
X0295328
X0291391
X0287454
X0283517
Y0226552
X027958
X0275643
Y0230489
Y0234426
X0271706
X0267769
Y0230489
X0263832
Y0234426
X0259895
Y0230489
Y0226552
X0263832
X0267769
X0271706
Y0230489
Y0222615
X0267769
Y0218678
X0263832
Y0214741
X0267769
X0271706
X0275643
Y0218678
X027958Y0222615
X0283517
X0287454
Y0226552
X0291391
X0295328
X0299265
Y0222615
X0295328
X0291391
Y0218678
X0287454
X0283517
Y0214741
X027958
Y0210804
X0283517
Y0205731
X027958Y0206867
X0275643
X0271706
X0267769
Y0210804
X0263832
X0259895
Y0206867
X0263832
X0255957
Y0210804
X0254Y0209
X0255957Y0214741
Y0218678
Y0222615
Y0226552
Y0230489
X025202
Y0234426
Y02423
Y0246237
Y0250174
Y0254111
Y0258048
Y0261985
Y0265922
X0255957
Y0269859
X0259895
X0263832
Y0273796
X0267769
X0271706
X0275643
X027958
X0283517
X0287454
X0291391
X0295328
X0299265
X0295328Y0269859
Y0265922
X0291391
X0287454
X0283517
Y0261985
X027958
Y0258048
Y0254111
X0275643
X0271706
Y0258048
Y0261985
Y0265922
Y0269859
X0267769
X0275643
X027958
X0283517
X027958Y0265922
X0275643
Y0261985
Y0258048
X0267769
X0263832
Y0261985
Y0265922
X0259895
Y0261985
Y0258048
Y0254111
X0263832
X0267769
Y0250174
X0263832
X0259895
Y0246237
X0263832
X0267769
X0271706
Y0250174
X0275643
X027958
Y0246237
X0275643
Y02423
X0271706
X0267769
X0263832
X0259895
Y0238363
X0263832
X0267769
X0271706
X0275643
X027958
Y02423
X0283517
X0287454
Y0246237
Y0250174
X0291391
X0294265
X0295328Y0254111
X0291391
X0287454
X0283517
Y0258048
X0287454
Y0261985
X0291391
X0295328
X03003
X0299265Y0265922
Y0254111
Y0250174
Y0246237
Y02423
X0295328
X0291391
Y0246237
Y0238363
X0287454
X0283517
X0282454Y0234426
X027958
X0287454
X0291391
X0295328
Y0238363
X03003Y0238331
X0299265Y0218678
Y0214741
Y0210804
Y0206867
X0291391Y0210804
Y0214741
X0287454
X0295328Y0218678
X0271706Y0210804
X0259895Y0222615
X025202
X0248083
X0244146
X0240209
Y0226552
X0236272
X0232335
Y0230489
X02345Y02325
X0232335Y0238363
Y02423
Y0246237
Y0250174
Y0254111
X0236272
X0240209
Y0258048
X0244146
Y0261985
Y0265922
X0240209Y0269859
X0236272
X02344Y02718
X0236272Y0273796
X0232335
Y0269859
X0236272Y0265922
Y0261985
X0248083
Y0258048
Y0254111
X0244146
Y0250174
X0248Y02501
X0240209Y0250174
X0236272
X0240209Y0246237
Y02423
X0236272
X0244146
X0248083
X0255957
Y0246237
Y0250174
Y0254111
Y0258048
Y0261985
Y0238363
X0244146
X0240209
X0244146Y0230489
Y0226552
X0248083
Y0218678
X0244146
Y0214741
X0248083
X025202
Y0218678
X0236272
X0232335
Y0222615
Y0214741
X0236272
Y0210804
X0240209
X0244146
Y0206867
X0236272
X02424Y02005
X024Y0197
X02571Y01954
X0273Y01786
X02783Y0175
X02645Y017
X02929Y01818
X0283517Y0246237
X02236Y02444
X0228535Y0237712
X0196Y02371
X01999Y02434
X0196Y02506
X0193Y0223
X01965Y02085
X02167Y02642
X024235Y027685
X02458Y02769
X02459Y0307
X02499
X02497Y03039
X02555Y03053
X02585Y03049
X02577Y03089
X02635Y03032
X02682Y03031
X02698Y03053
X02666
X0274Y03094
X02888Y03074
X02075Y0307
X0156252Y0159
X0137748
Y0164
Y0169
X01511Y03611
X01405Y03972
X0127
X01585
X01641Y03612
X0199154Y035648
X0202697
X020624
X0209783
X0213327
X0220413
X0222953Y03501
X02305Y03313
X0237Y03263
X0246Y03246
X02457Y03185
X02458Y0314
X02555Y03224
X02541Y0325
X02579Y03284
X02614
X02662
X02696Y03296
X02769Y03241
X02789Y03181
X02888Y03209
X02636Y03194
X0262772Y0355969
X0259228
X0255685
X0252142
X0266315
X0273402
X0275953Y03494
X0280193Y037339
Y0380476
Y038402
Y0387563
Y0391106
X02861Y0375853
X0303142Y0355969
X0306685
X0310228
X02328Y0376253
X0227205Y0373902
Y0380988
Y0384532
Y0388075
Y0391618
X0331193Y0391106
Y0387563
Y038402
Y0380476
Y037339
X03375Y0375653
X0324402Y0355969
X0317315
X0313772
X0326753Y03494
T02
X01824Y01486
Y01576
X01825Y0167
Y01805
X02024Y01858
Y0160883
X0211455
X02225Y0167
Y01805
X01675Y017
Y01565
X0127Y0157
Y01705
X01361Y02773
X01364Y02982
X01435Y0423
X0190594Y04115
X0202406
X0216594
X0228406
X0225925Y0397327
X0216968Y03865
X02025
X0193642Y0397327
Y0357563
X0191594Y03385
X0203406
X0217594
X0229406
X0246094
X0257906
X0270094
X0281906
X0297094
X0308906
X029763Y0357051
X0278913Y0357445
X0261Y03665
X024663Y0357051
X0225925Y0357957
X0208012Y0367012
X02093Y04232
X0245094Y04115
X0256906
X0269094
X0280906
X0296094
X0307906
X029763Y0396815
X0278913
X0269957Y0385988
X0255488
X024663Y0396815
X02632Y04235
X0306488Y0385988
X0312Y03665
X0329913Y0357445
X0332906Y03385
X0321094
X0320957Y0385988
X0329913Y0396815
X0331906Y04115
X0320094
X03142Y04235
T03
X0137Y0125
X0147
Y0135
X0137
X0157
Y0125
X0167
Y0135
X0189
X0199
X0209
X0219
Y0125
X0209
X0199
X0189
X01546Y02195
X01496
Y02245
X01546
Y02295
Y02345
Y02395
X01496
Y02345
Y02295
Y02445
X01546
Y02495
X01496
Y02545
Y02595
Y02645
Y02695
Y02745
Y02795
Y02845
Y02895
Y02945
Y02995
X01546
Y02945
Y02895
Y02845
Y02795
Y02745
Y02695
Y02645
Y02595
Y02545
T04
X03127Y03495
X03427
T05
X0111Y0188
Y0197941
Y020798
Y021802
Y0227961
Y0238
Y0247941
Y025798
Y026802
Y0277961
Y0288
Y0297941
Y030798
Y031802
Y0327961
Y0338
Y0347941
T06
X0123Y0379
X0133
Y0389
X0143
Y0379
X0153
Y0389
X0123
X0163
Y0379
T07
X0253Y01425
X0263
X0273
X0268Y01525
X0258
X0248
X03095
X03195
X03295
X03345Y01425
X03245
X03145
X03615Y01795
Y01895
Y01995
Y02095
X03715Y02045
Y01945
Y01845
Y01745
Y02295
Y02395
Y02495
Y02595
X03615Y02545
Y02445
Y02345
Y02645
Y02895
Y02995
Y03095
X03715Y03045
Y02945
Y02845
Y03145
X03615Y03195
Y03445
Y03545
Y03645
Y03745
X03715Y03695
Y03595
Y03495
Y03395
T08
X03765Y012
X03865
X03965
X04065
X04165
X04265
X02367Y03045
X02267
X02167
Y03145
X02267
X02367
X03765Y0427
X03865
X03965
X04065
X04165
X04265
T09
X02335Y01055
X02875
X0295
X0349
X04145Y0158
X03555Y02745
X04145Y0391
T10
X0115Y01395
X0395
X0115Y04095
X0395
T11
X02405Y01175
X02805
X0302
X0342
X03965Y01695
Y03795
M30
